<svg id="Groupe_420" data-name="Groupe 420" xmlns="http://www.w3.org/2000/svg" xmlns:xlink="http://www.w3.org/1999/xlink" width="25.036" height="29.34" viewBox="0 0 25.036 29.34">
  <defs>
    <clipPath id="clip-path">
      <rect id="Rectangle_526" data-name="Rectangle 526" width="25.036" height="29.34"/>
    </clipPath>
  </defs>
  <g id="Groupe_393" data-name="Groupe 393" clip-path="url(#clip-path)">
    <path id="Tracé_189" data-name="Tracé 189" d="M3.25,20.959l-.239.069a4.016,4.016,0,0,0-1.522.834A4.246,4.246,0,0,0,4.244,29.34H20.792a4.257,4.257,0,0,0,2.786-7.464,4.47,4.47,0,0,0-1.5-.847l-.22-.073-.357-2.47a7.642,7.642,0,0,0-5.838-6.458l-.93-.215.827-.477a6.073,6.073,0,1,0-6.073,0l.827.478-.931.215a7.64,7.64,0,0,0-5.838,6.452Zm19.238,1.864a2.854,2.854,0,0,1-1.347,5.1,2.869,2.869,0,0,1-.344.026H8.321l.454-.6a10.723,10.723,0,0,1,5.883-3.922c.818-.214,1.578-.391,2.319-.541,1.1-.23,2.239-.437,3.392-.615a2.841,2.841,0,0,1,2.119.557M7.85,6.077A4.683,4.683,0,0,1,12.525,1.4h0a4.676,4.676,0,0,1,0,9.353h0A4.682,4.682,0,0,1,7.85,6.077M4.94,18.656A6.226,6.226,0,0,1,11.1,13.222h2.859a6.226,6.226,0,0,1,6.156,5.434l.271,2.206-.365.052c-.692.1-1.379.217-2.043.351l-.451.092V18.973a.7.7,0,0,0-1.4,0v2.675l-.292.067c-.164.038-.333.075-.5.111-.348.076-.708.154-1,.239l-.009,0a13.746,13.746,0,0,0-1.484.476l-.12.046-.123-.037c-1.068-.32-2.252-.6-3.371-.854l-.293-.067v-2.66a.7.7,0,0,0-1.4,0v2.4l-.446-.084L6.61,21.2c-.519-.1-1.055-.2-1.588-.284l-.363-.055Zm-.321,3.587.022,0c1.182.176,2.34.384,3.441.616.657.138,1.307.286,1.989.454l.788.194-.657.476a11.787,11.787,0,0,0-3.368,3.771l-.108.191H4.25a2.859,2.859,0,0,1-1.855-5.025A2.808,2.808,0,0,1,4.2,22.241a2.4,2.4,0,0,1,.417,0" transform="translate(0 0)"/>
  </g>
</svg>
