<svg xmlns="http://www.w3.org/2000/svg" width="23.005" height="23.016" viewBox="0 0 23.005 23.016">
  <path id="Union_13" data-name="Union 13" d="M6632-4361.834a4.535,4.535,0,0,1-1.855-2.958,4.526,4.526,0,0,1,.78-3.4,4.524,4.524,0,0,1,2.956-1.854l.225-.039v-9.43h-10.2v9.43l.225.039a4.564,4.564,0,0,1,3.738,3.736,4.541,4.541,0,0,1-.78,3.4,4.535,4.535,0,0,1-2.958,1.855,4.567,4.567,0,0,1-5.256-3.738,4.531,4.531,0,0,1,.778-3.4,4.533,4.533,0,0,1,2.958-1.854l.227-.039v-9.43h-3.854a.989.989,0,0,1-.978-.977v-1.528a.989.989,0,0,1,.977-.978h20.049a.987.987,0,0,1,.98.977v1.528a.988.988,0,0,1-.977.979h-3.854v9.43l.225.039a4.564,4.564,0,0,1,3.738,3.736,4.541,4.541,0,0,1-.78,3.4,4.535,4.535,0,0,1-2.958,1.855,4.642,4.642,0,0,1-.768.064A4.527,4.527,0,0,1,6632-4361.834Zm-.85-3.724a3.5,3.5,0,0,0,3.491,3.493,3.468,3.468,0,0,0,2.468-1.021,3.478,3.478,0,0,0,1.024-2.47v-.27h-.01a3.5,3.5,0,0,0-3.481-3.221A3.494,3.494,0,0,0,6631.147-4365.559Zm-11.273,0a3.5,3.5,0,0,0,3.491,3.493,3.5,3.5,0,0,0,3.493-3.491,3.5,3.5,0,0,0-3.493-3.491A3.5,3.5,0,0,0,6619.874-4365.559Zm-.8-15.024h19.867l0-1.348h-19.865Zm13.423,15.026a2.148,2.148,0,0,1,2.145-2.145,2.147,2.147,0,0,1,2.145,2.145,2.147,2.147,0,0,1-2.145,2.143A2.147,2.147,0,0,1,6632.492-4365.557Zm1.068,0a1.077,1.077,0,0,0,1.077,1.075,1.076,1.076,0,0,0,1.076-1.075,1.077,1.077,0,0,0-1.076-1.077A1.077,1.077,0,0,0,6633.561-4365.557Zm-12.34,0a2.146,2.146,0,0,1,2.145-2.145,2.146,2.146,0,0,1,2.143,2.145,2.146,2.146,0,0,1-2.143,2.143A2.146,2.146,0,0,1,6621.221-4365.557Zm1.068,0a1.075,1.075,0,0,0,1.076,1.075,1.075,1.075,0,0,0,1.075-1.075,1.076,1.076,0,0,0-1.075-1.077A1.076,1.076,0,0,0,6622.289-4365.557Z" transform="translate(-6617.5 4383.5)" stroke="rgba(0,0,0,0)" stroke-miterlimit="10" stroke-width="1"/>
</svg>
