<svg id="Groupe_419" data-name="Groupe 419" xmlns="http://www.w3.org/2000/svg" xmlns:xlink="http://www.w3.org/1999/xlink" width="33.473" height="29.34" viewBox="0 0 33.473 29.34">
  <defs>
    <clipPath id="clip-path">
      <rect id="Rectangle_525" data-name="Rectangle 525" width="33.473" height="29.34"/>
    </clipPath>
  </defs>
  <g id="Groupe_392" data-name="Groupe 392" clip-path="url(#clip-path)">
    <path id="Tracé_188" data-name="Tracé 188" d="M32.7,15.591H31.52l.006-.006h-.419l.451-.738c.082-.133.169-.262.253-.386.1-.151.2-.294.28-.435l.008-.013a9.413,9.413,0,0,0,.187-9.474l-.006-.011A8.472,8.472,0,0,0,17.193,4.7l-.426.858-.439-.852A8.531,8.531,0,0,0,8.769.071H8.706A8.393,8.393,0,0,0,2.4,2.926,9.491,9.491,0,0,0,.06,10.293a.752.752,0,0,0,1.492-.186,8.038,8.038,0,0,1,1.961-6.19A6.9,6.9,0,0,1,8.788,1.544,7.128,7.128,0,0,1,15.2,5.764l.9,1.9A.742.742,0,0,0,17.093,8a.744.744,0,0,0,.345-.345l.9-1.891A6.987,6.987,0,0,1,30.95,5.287a7.948,7.948,0,0,1-.109,7.968c-.472.795-.992,1.56-1.392,2.137L29.3,15.6H21.667a.745.745,0,0,0-.593.3l-2.922,3.958L13.774,11.1a.742.742,0,0,0-1.318,0l-2.3,4.482H.81a.742.742,0,1,0,0,1.485H3.423l.379.517A45.118,45.118,0,0,0,16.366,29.228a.747.747,0,0,0,.787,0,45.08,45.08,0,0,0,9.067-7.489l.009-.009a.742.742,0,1,0-1.059-1.039l-.028.03-.01.011a43.646,43.646,0,0,1-8.114,6.824l-.264.172-.264-.171a43.445,43.445,0,0,1-10.608-9.7l-.613-.783h5.355a.738.738,0,0,0,.659-.408l1.792-3.568,4.248,8.483a.738.738,0,0,0,.574.408h.085a.745.745,0,0,0,.593-.3l3.458-4.612H32.7a.743.743,0,0,0,0-1.485" transform="translate(0 -0.001)"/>
  </g>
</svg>
