<svg id="Groupe_418" data-name="Groupe 418" xmlns="http://www.w3.org/2000/svg" xmlns:xlink="http://www.w3.org/1999/xlink" width="40" height="29.345" viewBox="0 0 40 29.345">
  <defs>
    <clipPath id="clip-path">
      <rect id="Rectangle_524" data-name="Rectangle 524" width="40" height="29.345"/>
    </clipPath>
  </defs>
  <g id="Groupe_390" data-name="Groupe 390" clip-path="url(#clip-path)">
    <path id="Tracé_187" data-name="Tracé 187" d="M39.694,6.894l-3.11-5.386A2.3,2.3,0,0,0,33.447.668L32.1,1.445a.811.811,0,0,1-1.108-.3A2.3,2.3,0,0,0,27.856.307l-1.346.777a2.3,2.3,0,0,0-.841,3.138L28,8.259a.811.811,0,0,1-.3,1.108L11.559,18.688a.811.811,0,0,1-1.108-.3L8.12,14.354a2.3,2.3,0,0,0-3.138-.841h0l0,0-1.346.777a2.3,2.3,0,0,0-.841,3.138.811.811,0,0,1-.3,1.108l-1.346.777a2.3,2.3,0,0,0-.841,3.138l3.11,5.387a2.3,2.3,0,0,0,3.135.837L7.9,27.9a.811.811,0,0,1,1.108.3,2.3,2.3,0,0,0,3.138.841l1.346-.777a2.3,2.3,0,0,0,.848-3.134l0-.006L12,21.083a.811.811,0,0,1,.3-1.108l16.145-9.321a.811.811,0,0,1,1.108.3l2.331,4.037a2.3,2.3,0,0,0,3.138.841l1.346-.777a2.3,2.3,0,0,0,.841-3.138.811.811,0,0,1,.3-1.108l1.346-.777a2.3,2.3,0,0,0,.842-3.135M7.537,26.124a.811.811,0,0,1-.378.493l-1.346.777a.811.811,0,0,1-1.108-.3L1.6,21.71a.811.811,0,0,1,.3-1.108l1.346-.777a.811.811,0,0,1,1.108.3l3.11,5.387a.811.811,0,0,1,.081.615m5.51-.255a.811.811,0,0,1-.3,1.108l-1.346.777a.811.811,0,0,1-1.108-.3L4.079,16.687a.811.811,0,0,1,.3-1.108L5.721,14.8a.811.811,0,0,1,1.108.3ZM36.006,13.276a.811.811,0,0,1-.378.492l-1.346.777a.811.811,0,0,1-1.108-.3L26.956,3.479a.811.811,0,0,1,.3-1.108L28.6,1.594a.811.811,0,0,1,1.108.3l6.218,10.77a.811.811,0,0,1,.081.616m2.105-4.53-1.346.777a.811.811,0,0,1-1.108-.3l-3.11-5.387a.811.811,0,0,1,.3-1.108l1.346-.777a.811.811,0,0,1,1.108.3l3.11,5.387a.811.811,0,0,1-.3,1.108" transform="translate(0 0)"/>
  </g>
</svg>
